<svg id="レイヤー_1" data-name="レイヤー 1" xmlns="http://www.w3.org/2000/svg" viewBox="0 0 174.22 37.17"><defs><style>.cls-1{fill:#0071bc;}.cls-2{fill:#fff;}.cls-3{fill:#ff32a0;}</style></defs><title>rogo</title><polygon class="cls-1" points="18.75 13.24 36.36 5.83 18.75 0 1.14 5.83 18.75 13.24"/><polygon class="cls-2" points="37.5 6.16 37.5 6.16 37.5 6.16 37.5 6.16"/><polygon class="cls-2" points="19.49 14.54 19.49 37.17 25.08 34.82 25.08 19.11 32.41 16.02 32.41 31.73 37.5 29.59 37.5 6.97 19.49 14.54"/><polygon class="cls-2" points="0 6.16 0 6.16 0 6.16 0 6.16"/><polygon class="cls-3" points="18.01 14.54 0 6.97 0 29.59 18.01 37.17 18.01 14.54"/><path class="cls-2" d="M45.65,5.34c-.93,0-1.32-.58-1.32-.74a.18.18,0,0,1,.19-.18.17.17,0,0,1,.15.09,1.08,1.08,0,0,0,1,.5.85.85,0,0,0,.94-.78.94.94,0,0,0-.54-.78c-.29-.17-.6-.32-.91-.48A1.05,1.05,0,0,1,44.51,2a1,1,0,0,1,1.1-.95c.72,0,1.14.41,1.14.59a.18.18,0,0,1-.17.18.18.18,0,0,1-.16-.1,1,1,0,0,0-.81-.37.68.68,0,0,0-.75.64.74.74,0,0,0,.45.65c.26.14.66.32.91.46A1.27,1.27,0,0,1,47,4.23,1.18,1.18,0,0,1,45.65,5.34Z" transform="translate(-0.52 -0.11)"/><path class="cls-2" d="M49.34,4.88a1.1,1.1,0,0,1-.91.46.85.85,0,0,1-.92-.78.76.76,0,0,1,.61-.71,8.9,8.9,0,0,1,1.06-.24c.06,0,.09,0,.09-.06v-.1c0-.31-.13-.55-.59-.55a.91.91,0,0,0-.67.27.16.16,0,0,1-.12.06.16.16,0,0,1-.16-.16c0-.21.48-.46,1-.46a.78.78,0,0,1,.89.87v.16c0,.19,0,.45,0,.64,0,.47.09.58.32.7a.14.14,0,0,1,.06.12.18.18,0,0,1-.17.18.54.54,0,0,1-.4-.4l0,0S49.34,4.86,49.34,4.88Zm-.08-.72V4c0-.05,0-.06-.06-.06h0c-.9.14-1.37.25-1.37.65a.55.55,0,0,0,.61.48A.82.82,0,0,0,49.26,4.16Z" transform="translate(-0.52 -0.11)"/><path class="cls-2" d="M51.25,3c-.09,0-.09,0-.09.08,0,.22,0,.81,0,1.23s0,.75.46.75h.18a.14.14,0,0,1,.14.15c0,.15-.14.17-.37.17-.73,0-.73-.62-.73-.87s0-1.06,0-1.34V3c0-.06,0-.07,0-.07h-.34a.14.14,0,0,1-.16-.15.15.15,0,0,1,.16-.15h.33s.06,0,.06,0,0-.3,0-.5V2A.16.16,0,0,1,51,1.81a.17.17,0,0,1,.17.18c0,.16,0,.62,0,.62s0,.06.08.06h.51a.15.15,0,0,1,.16.15.14.14,0,0,1-.16.15Z" transform="translate(-0.52 -0.11)"/><path class="cls-2" d="M54.83,2.8c0,.44,0,.91,0,1.39A1.46,1.46,0,0,0,55,5a.19.19,0,0,1,0,.11.16.16,0,0,1-.17.16c-.19,0-.27-.3-.28-.4v0h0a1.12,1.12,0,0,1-.92.45.89.89,0,0,1-.95-.91c0-.2,0-.74,0-1.17,0-.18,0-.34,0-.46a.16.16,0,0,1,.17-.17.17.17,0,0,1,.17.16h0c0,.24,0,.69,0,1.06s0,.44,0,.53a.62.62,0,0,0,.64.66.83.83,0,0,0,.85-.77c0-.19,0-.39,0-.58s0-.6,0-.9h0a.15.15,0,0,1,.16-.15.17.17,0,0,1,.18.16Z" transform="translate(-0.52 -0.11)"/><path class="cls-2" d="M56.18,5.16a.16.16,0,0,1-.16.16.17.17,0,0,1-.18-.16h0c0-.46,0-1,0-1.49,0-.32,0-.62,0-.87h0A.16.16,0,0,1,56,2.63a.16.16,0,0,1,.18.16c0,.09,0,.13,0,.21V3l0,0a1.16,1.16,0,0,1,.83-.38.16.16,0,0,1,.18.15.17.17,0,0,1-.18.17.82.82,0,0,0-.87.7V5.16Z" transform="translate(-0.52 -0.11)"/><path class="cls-2" d="M60.36,5.28a.17.17,0,0,1-.16-.09,2.5,2.5,0,0,1-.12-.36c0-.06,0-.09,0-.09s0,0,0,.06a1.21,1.21,0,0,1-1,.53A1.27,1.27,0,0,1,57.71,4,1.28,1.28,0,0,1,59,2.62a1.12,1.12,0,0,1,.9.42s0,.07.06.07,0,0,0-.11c0-.69,0-1.46,0-1.7a.17.17,0,0,1,.17-.19.18.18,0,0,1,.18.18h0c0,.25,0,.85,0,1.51,0,1.8,0,1.84.2,2.2a.2.2,0,0,1,0,.1A.17.17,0,0,1,60.36,5.28ZM60,4a1,1,0,0,0-1-1.06,1,1,0,0,0-1,1.06,1,1,0,0,0,1,1A1,1,0,0,0,60,4Z" transform="translate(-0.52 -0.11)"/><path class="cls-2" d="M63,4.88a1.06,1.06,0,0,1-.9.46.85.85,0,0,1-.93-.78.76.76,0,0,1,.61-.71,9.35,9.35,0,0,1,1.06-.24c.07,0,.09,0,.09-.06s0-.07,0-.1c0-.31-.13-.55-.6-.55a.9.9,0,0,0-.66.27.17.17,0,0,1-.12.06.16.16,0,0,1-.16-.16c0-.21.48-.46,1-.46a.78.78,0,0,1,.89.87.86.86,0,0,1,0,.16c0,.19,0,.45,0,.64,0,.47.09.58.32.7a.13.13,0,0,1,.07.12.19.19,0,0,1-.18.18.55.55,0,0,1-.4-.4s0,0,0,0ZM63,4.16C63,4.1,63,4,63,4s0-.06-.06-.06h0c-.89.14-1.37.25-1.37.65a.55.55,0,0,0,.61.48A.81.81,0,0,0,63,4.16Z" transform="translate(-0.52 -0.11)"/><path class="cls-2" d="M64.07,6.78a.17.17,0,0,1-.19-.17c0-.08.07-.16.2-.16.46,0,.66-.32,1-1a.25.25,0,0,0,0-.07.23.23,0,0,0,0-.11c-.18-.44-.82-2-1-2.36a.12.12,0,0,1,0-.08.16.16,0,0,1,.17-.15.17.17,0,0,1,.17.11c.14.38.63,1.66.8,2,0,.05,0,.08.06.08a18.76,18.76,0,0,0,.84-2.1.19.19,0,0,1,.17-.13.17.17,0,0,1,.19.17.11.11,0,0,1,0,.07c-.27.69-.79,1.91-1.14,2.74S64.69,6.78,64.07,6.78Z" transform="translate(-0.52 -0.11)"/><path class="cls-2" d="M70.72,5.3a1.4,1.4,0,0,1-1-.54.08.08,0,0,0-.07,0l-.05,0a2.11,2.11,0,0,1-1.34.6,1.12,1.12,0,0,1-1.18-1.1c0-.65.58-1.06.94-1.3,0,0,0,0,0,0s0,0,0,0a1.39,1.39,0,0,1-.48-.92.87.87,0,0,1,.88-.84.81.81,0,0,1,.84.81c0,.37-.27.67-.71,1a.05.05,0,0,0,0,0l0,0,1.06,1.17s0,0,0,0a3.56,3.56,0,0,0,.71-1.4.15.15,0,0,1,.15-.11.18.18,0,0,1,.19.17A4.14,4.14,0,0,1,70,4.39a.09.09,0,0,0,0,.06,1.31,1.31,0,0,0,.8.51A.61.61,0,0,0,71,4.9H71a.17.17,0,0,1,.16.17C71.2,5.28,70.84,5.3,70.72,5.3ZM68.3,3.12l0,0c-.43.3-.81.59-.81,1.1a.82.82,0,0,0,.88.79,1.57,1.57,0,0,0,1.13-.59A15.88,15.88,0,0,0,68.3,3.12ZM69,1.9a.51.51,0,0,0-.53-.52.54.54,0,0,0-.55.56,1.31,1.31,0,0,0,.45.78,2.36,2.36,0,0,0,.54-.49A.68.68,0,0,0,69,1.9Z" transform="translate(-0.52 -0.11)"/><path class="cls-2" d="M73,5.34c-.93,0-1.32-.58-1.32-.74a.18.18,0,0,1,.19-.18.17.17,0,0,1,.15.09A1.08,1.08,0,0,0,73,5a.85.85,0,0,0,.94-.78.94.94,0,0,0-.54-.78c-.29-.17-.6-.32-.91-.48A1.05,1.05,0,0,1,71.82,2a1,1,0,0,1,1.1-.95c.72,0,1.14.41,1.14.59a.18.18,0,0,1-.17.18.18.18,0,0,1-.16-.1.94.94,0,0,0-.81-.37.68.68,0,0,0-.75.64.74.74,0,0,0,.45.65c.26.14.66.32.91.46a1.27,1.27,0,0,1,.74,1.09A1.18,1.18,0,0,1,73,5.34Z" transform="translate(-0.52 -0.11)"/><path class="cls-2" d="M77.18,2.8c0,.44,0,.91,0,1.39a1.39,1.39,0,0,0,.17.84.19.19,0,0,1,0,.11.17.17,0,0,1-.18.16c-.19,0-.27-.3-.28-.4s0,0,0,0h0a1.11,1.11,0,0,1-.92.45A.88.88,0,0,1,75,4.43c0-.2,0-.74,0-1.17V2.8a.16.16,0,0,1,.17-.17.17.17,0,0,1,.17.16h0c0,.24,0,.69,0,1.06s0,.44,0,.53a.63.63,0,0,0,.65.66.82.82,0,0,0,.84-.77c0-.19,0-.39,0-.58s0-.6,0-.9h0A.15.15,0,0,1,77,2.64a.17.17,0,0,1,.17.16Z" transform="translate(-0.52 -0.11)"/><path class="cls-2" d="M80,5.16c0-.24,0-.69,0-1s0-.43,0-.52a.62.62,0,0,0-.64-.66.86.86,0,0,0-.86.76c0,.18,0,.5,0,.89,0,.18,0,.37,0,.58h0a.16.16,0,0,1-.17.16.18.18,0,0,1-.18-.16h0c0-.46,0-1,0-1.48,0-.32,0-.62,0-.87h0a.17.17,0,0,1,.18-.15.15.15,0,0,1,.16.15V3h0a1,1,0,0,1,.84-.41.91.91,0,0,1,1,.91c0,.18,0,.6,0,1,0,.24,0,.47,0,.63a.15.15,0,0,1-.16.16A.17.17,0,0,1,80,5.16Z" transform="translate(-0.52 -0.11)"/><path class="cls-2" d="M83.79,5.28a.16.16,0,0,1-.15-.09,1.26,1.26,0,0,1-.12-.36q0-.09,0-.09s0,0,0,.06a1.2,1.2,0,0,1-1,.53A1.27,1.27,0,0,1,81.15,4a1.28,1.28,0,0,1,1.3-1.35,1.11,1.11,0,0,1,.9.42s.05.07.06.07,0,0,0-.11c0-.69,0-1.46,0-1.7a.17.17,0,0,1,.18-.19.17.17,0,0,1,.17.18h0c0,.25,0,.85,0,1.51,0,1.8,0,1.84.2,2.2a.44.44,0,0,1,0,.1A.18.18,0,0,1,83.79,5.28ZM83.43,4a1,1,0,0,0-1-1.06,1,1,0,0,0-1,1.06,1,1,0,0,0,1,1A1,1,0,0,0,83.43,4Z" transform="translate(-0.52 -0.11)"/><path class="cls-2" d="M86.46,4.88a1.06,1.06,0,0,1-.9.46.85.85,0,0,1-.92-.78.76.76,0,0,1,.61-.71,8.79,8.79,0,0,1,1-.24c.07,0,.1,0,.1-.06v-.1c0-.31-.13-.55-.59-.55a.91.91,0,0,0-.67.27.16.16,0,0,1-.12.06.16.16,0,0,1-.16-.16c0-.21.48-.46,1-.46a.78.78,0,0,1,.89.87.86.86,0,0,1,0,.16c0,.19,0,.45,0,.64,0,.47.09.58.32.7a.14.14,0,0,1,.06.12.18.18,0,0,1-.17.18.52.52,0,0,1-.4-.4l0,0Zm-.08-.72c0-.06,0-.12,0-.19s0-.06-.06-.06h0c-.9.14-1.38.25-1.38.65,0,.24.23.48.62.48A.81.81,0,0,0,86.38,4.16Z" transform="translate(-0.52 -0.11)"/><path class="cls-2" d="M87.5,6.78a.17.17,0,0,1-.18-.17.17.17,0,0,1,.19-.16c.46,0,.66-.32,1-1a.11.11,0,0,0,0-.07.23.23,0,0,0,0-.11c-.17-.44-.82-2-1-2.36a.22.22,0,0,1,0-.08.17.17,0,0,1,.33,0c.14.38.64,1.66.8,2,0,.05,0,.08.06.08a18.83,18.83,0,0,0,.85-2.1.17.17,0,0,1,.17-.13.18.18,0,0,1,.19.17.25.25,0,0,1,0,.07c-.28.69-.8,1.91-1.15,2.74S88.13,6.78,87.5,6.78Z" transform="translate(-0.52 -0.11)"/><path class="cls-2" d="M92.17,3.22a2.08,2.08,0,1,1,4.15,0,2.08,2.08,0,1,1-4.15,0Zm3.77,0a1.7,1.7,0,1,0-3.4,0,1.7,1.7,0,1,0,3.4,0Z" transform="translate(-0.52 -0.11)"/><path class="cls-2" d="M99.08,5.16c0-.24,0-.69,0-1s0-.43,0-.52a.62.62,0,0,0-.64-.66.85.85,0,0,0-.86.76c0,.18,0,.5,0,.89v.58h0a.16.16,0,0,1-.16.16.17.17,0,0,1-.18-.16h0c0-.46,0-1,0-1.48,0-.32,0-.62,0-.87h0a.17.17,0,0,1,.18-.15.15.15,0,0,1,.16.15V3s0,0,0,0,0,0,0,0a1,1,0,0,1,.85-.41.91.91,0,0,1,1,.91c0,.18,0,.6,0,1v.63a.15.15,0,0,1-.17.16.17.17,0,0,1-.17-.16Z" transform="translate(-0.52 -0.11)"/><path class="cls-2" d="M100.79,5.11a.18.18,0,1,1-.36,0h0c0-.41,0-1.24,0-2s0-1.54,0-1.77h0a.18.18,0,0,1,.19-.18.17.17,0,0,1,.17.17h0c0,.26,0,1.11,0,2s0,1.43,0,1.83Z" transform="translate(-0.52 -0.11)"/><path class="cls-2" d="M101.59,6.78a.17.17,0,0,1-.19-.17c0-.08.07-.16.2-.16.46,0,.66-.32,1-1a.11.11,0,0,0,0-.07.23.23,0,0,0,0-.11c-.17-.44-.82-2-1-2.36a.22.22,0,0,1,0-.08.17.17,0,0,1,.33,0c.14.38.64,1.66.8,2,0,.05,0,.08.06.08a17,17,0,0,0,.84-2.1.19.19,0,0,1,.18-.13.17.17,0,0,1,.18.17.2.2,0,0,1,0,.07c-.28.69-.8,1.91-1.15,2.74S102.22,6.78,101.59,6.78Z" transform="translate(-0.52 -0.11)"/><path class="cls-2" d="M54.89,33c-2.46,0-4.54-.58-6.12-2.58A12.7,12.7,0,0,1,45,34.13l-1.4-2a10.06,10.06,0,0,0,3.82-3.34l-.06-7.45-3.34,0,0-2.25,5.54-.05.08,9.05c1.31,2.14,2.88,2.71,5.29,2.69l13.85-.22L68,32.92ZM47.68,15.81A42.15,42.15,0,0,0,44,11.12l1.76-1.5a48.41,48.41,0,0,1,3.65,4.75ZM62,27.29h1.3c2.07,0,2.2-.23,2.19-1.74L65.41,11.8l-11.19.09,0,5.17c0,4,0,9.25-1.73,12.4l-1.82-1.87C52,24.74,52.12,21,52.09,17L52,9.76,67.6,9.63l.12,15.78c0,3.37-.68,3.93-4.71,4.12Zm-7.11-7.8,0-1.77,3.9,0v-2l-3.42,0,0-1.75,3.42,0V12.41l2.15,0V14l3.5,0v1.75l-3.5,0,0,2,3.9,0v1.78Zm.85,7.61,0-6.13,8.3-.06,0,6.12Zm6.28-4.48-4.32,0,0,2.71,4.32,0Z" transform="translate(-0.52 -0.11)"/><path class="cls-2" d="M44.9,34.42l-1.65-2.34.21-.12a9.8,9.8,0,0,0,3.7-3.22l0-7.17-3.34,0,0-2.68,6-.05.07,9.2c1.33,2.13,2.93,2.56,5.08,2.53L69,30.38l-.83,2.75-13.29.1h-.11c-2.7,0-4.57-.75-6-2.43a12.84,12.84,0,0,1-3.72,3.51Zm-1-2.19L45,33.84a12.27,12.27,0,0,0,3.58-3.52l.17-.25.18.24c1.38,1.75,3.2,2.53,6,2.49l13-.1.57-1.88L54.88,31h-.12c-2.2,0-3.95-.49-5.37-2.79l0,0-.07-8.89-5.11,0v1.83l3.34,0,.07,7.73,0,.06A10.23,10.23,0,0,1,43.88,32.23Zm8.7-2.41-2.12-2.19.06-.13c1.3-2.91,1.38-6.78,1.35-10.5l-.06-7.46,16-.12.13,16c0,3.45-.76,4.14-4.92,4.34h-.15l-1.08-2.49-6.23,0-.05-6.55,8.73-.07L64.29,27a1.48,1.48,0,0,0,.78-.22c.21-.17.24-.53.24-1.26L65.2,12l-10.76.08,0,5c0,4.43-.07,9.42-1.76,12.5Zm9.78-2.32.78,1.81c3.82-.19,4.39-.73,4.37-3.9L67.38,9.85,52.25,10l0,7c0,3.71,0,7.58-1.33,10.55l1.51,1.56c1.51-3,1.6-7.78,1.57-12l0-5.39,11.61-.09.11,14c0,.76,0,1.29-.38,1.6a3.39,3.39,0,0,1-2,.36Zm-6.42-6.31L56,26.88l7.87-.06,0-5.7Zm1.6,4.38,0-3.13,4.75,0,0,3.14Zm.4-2.7,0,2.27,3.89,0V22.84Zm-3.23-3.16,0-2.21,3.9,0,0-1.53-3.42,0V13.79l3.42,0,0-1.56,2.58,0v1.56l3.5,0,0,2.18-3.5,0v1.53l3.9,0,0,2.21Zm.41-1.78v1.35l9.52-.08V17.85l-3.9,0,0-2.39,3.5,0V14.15l-3.5,0V12.61H59v1.57l-3.42,0v1.32l3.42,0,0,2.39Zm-7.49-1.8-.13-.2a43.22,43.22,0,0,0-3.68-4.66l-.15-.17,2.1-1.78.14.16a50,50,0,0,1,3.66,4.77l.1.16Zm-3.34-5a43.23,43.23,0,0,1,3.43,4.35l1.38-1.17a49,49,0,0,0-3.38-4.4Z" transform="translate(-0.52 -0.11)"/><path class="cls-2" d="M93.74,31.65a30.91,30.91,0,0,1-9.94-9l.09,11.11-2.36,0-.09-11a27,27,0,0,1-9.84,9.31L70.07,30a25.45,25.45,0,0,0,10.27-8.73l-8.45.07,0-2.23L81.41,19l0-4.37-10.53.08,0-2.23,10.53-.08,0-3.63,2.36,0,0,3.63,10.48-.08v2.23l-10.47.08,0,4.37,9.5-.07v2.23l-8.35.06a26.45,26.45,0,0,0,10.3,8.2Z" transform="translate(-0.52 -0.11)"/><path class="cls-2" d="M81.32,34l-.08-10.42a27.66,27.66,0,0,1-9.54,8.75l-.17.09-1.78-2.58.23-.11a25.53,25.53,0,0,0,10-8.31l-8.28.06,0-2.66,9.55-.07,0-4-10.53.09,0-2.66,10.53-.08,0-3.64,2.79,0,0,3.64,10.48-.09,0,2.66L84,14.81l0,4,9.49-.08,0,2.66-8.13.06a26.07,26.07,0,0,0,9.95,7.79l.23.1-1.74,2.65-.18-.1A31.48,31.48,0,0,1,84,23.36L84.11,34Zm.33-11.94.09,11.51,1.93,0L83.58,22l.4.57a30.84,30.84,0,0,0,9.69,8.81l1.24-1.89a26.53,26.53,0,0,1-10.15-8.16L84.5,21l8.57-.07,0-1.79-9.49.07,0-4.8L94,14.3l0-1.79-10.47.08,0-3.63H81.55l0,3.63-10.53.09,0,1.79,10.52-.08,0,4.81-9.55.07,0,1.8L80.74,21l-.21.33A25.77,25.77,0,0,1,70.39,30l1.28,1.85a26.8,26.8,0,0,0,9.59-9.13Z" transform="translate(-0.52 -0.11)"/><path class="cls-2" d="M120.45,18.39a33.29,33.29,0,0,1-11.38-7.57,28.48,28.48,0,0,1-11.29,7.73l-1.4-2.3c5.13-1.82,9.38-4.9,11.4-7.57l2.49,0A27.93,27.93,0,0,0,121.89,16Zm-1.34,15.16c-.59-.79-1.36-1.77-2.17-2.77a135.09,135.09,0,0,1-18.31,1.87l-.49-2.44c1.06,0,2.14,0,3.26-.08a26.4,26.4,0,0,0,4.33-5.73l-8,.06V22.23l22.75-.18,0,2.23-12,.1A25.61,25.61,0,0,1,104.39,30a102.56,102.56,0,0,0,11-1.06l-2.62-3,1.84-1.29c1.64,1.71,4.77,5.24,6.35,7.22ZM102.53,19l0-2.2,13.61-.11v2.2Z" transform="translate(-0.52 -0.11)"/><path class="cls-2" d="M119.08,33.87l-.14-.19c-.56-.76-1.3-1.69-2.08-2.66a132.48,132.48,0,0,1-18.22,1.84h-.18L97.87,30h.27c1,0,2,0,3-.07h.13a26.31,26.31,0,0,0,4-5.3l-7.8.06,0-2.66h.21l23-.18,0,2.65-5.9.05c1.66,1.75,4.73,5.22,6.28,7.16l.13.16Zm-2-3.33.08.11c.75.93,1.46,1.83,2,2.58l1.52-1.42c-1.56-1.93-4.45-5.19-6.07-6.91L113.09,26l2.72,3.14-.39.06a102.44,102.44,0,0,1-11,1.07l-.54,0,.38-.4a25.51,25.51,0,0,0,4.08-5.58l.06-.11,11.93-.09v-1.8L98,22.45l0,1.79,8.11-.06-.18.32a27,27,0,0,1-4.37,5.79l-.06.06h-.3c-1,0-1.88.06-2.79.08l.41,2a128.2,128.2,0,0,0,18.09-1.85Zm-8.39-5.95a26.05,26.05,0,0,1-3.72,5.17,100.64,100.64,0,0,0,10.06-1l-2.53-2.91,1.9-1.33Zm-6.32-5.33,0-2.63,13.81-.11a31.86,31.86,0,0,1-7-5.38,29.06,29.06,0,0,1-11.22,7.61l-.17.06-1.63-2.67.25-.09c4.67-1.65,9.1-4.6,11.3-7.5l.06-.08,2.7,0,.07.07A27.33,27.33,0,0,0,122,15.82l.26.08-1.68,2.76-.17-.07a33.22,33.22,0,0,1-4-1.95l0,2.51Zm.41-2.21v1.77l13.18-.1,0-1.77Zm-6-.69,1.17,1.92a28.42,28.42,0,0,0,11-7.6l.15-.18.17.17a33.07,33.07,0,0,0,11.13,7.46l1.21-2a28.1,28.1,0,0,1-11.4-7.26l-2.28,0C105.66,11.78,101.31,14.69,96.7,16.36Z" transform="translate(-0.52 -0.11)"/><path class="cls-2" d="M123.06,15.4V13.31l9.57-.08v2.1Zm3.1,16.87v1.2H124l-.06-8.43L132,25l.06,7.26Zm-2-20.88,0-2.07,7.51-.06v2.07Zm.06,7.9,0-1.93,7.51-.06v1.93Zm0,3.85,0-2,7.51-.06v2Zm5.73,3.8L126,27l0,3.34,3.9,0Zm18.45,2.85c-.56,2.05-1.48,3.51-2.62,3.52-1,0-1.89-1-2.56-2.42a16.26,16.26,0,0,1-3,1.86l-1-1.69a12.39,12.39,0,0,0,3.46-1.75,23.31,23.31,0,0,1-.83-4.08l-3.39,0v1.67c.9-.2,1.77-.42,2.62-.66V28c-.76.24-1.66.49-2.62.71l0,1.37c0,2.6-.22,3.29-4,3.35l-.83-1.88c2.65,0,2.81-.12,2.8-1.32V29.09c-1.14.22-2.28.36-3.36.48l-.42-1.8c1.2-.09,2.47-.26,3.77-.46l0-2-3.66,0V23.55l3.66,0,0-1.83c-1,.11-2,.18-2.86.21L133,20.21a21.93,21.93,0,0,0,7-1l.86,1.53a11.89,11.89,0,0,1-2.46.68v2.13l3.24,0c-.12-1.27-.21-2.6-.24-3.92l2.06-.07c0,1.38.08,2.73.17,4l4.14,0v1.75l-4,0c.14,1.12.31,2.07.47,2.81a12.14,12.14,0,0,0,2-2.48l1.26,1.1a17.88,17.88,0,0,1-2.71,3c.35.87.83,1.53,1.18,1.53s.79-.83,1.3-3ZM132.8,18.91l0-1.73,6.39-.05V15.28l-5.25,0V13.75l5.25,0,0-1.8-6.28.05,0-1.65,3.27,0A13,13,0,0,0,135,8.73l2.14-.41a12.44,12.44,0,0,1,1.24,1.95l3.44,0a11.5,11.5,0,0,0,1.07-2l2.21.38a16.77,16.77,0,0,1-.92,1.63l3.45,0v1.64l-6.31.05,0,1.81,5.38,0v1.57l-5.38,0v1.86l6.39-.05,0,1.72ZM146.35,23a16.37,16.37,0,0,0-2-2.9l1.37-.94a24.38,24.38,0,0,1,2,2.83Z" transform="translate(-0.52 -0.11)"/><path class="cls-2" d="M123.76,33.7l-.07-8.86,8.52-.07.06,7.7-5.89,0v1.19Zm.36-8.44.07,8,1.77,0V32.06l5.89,0-.06-6.84Zm10.22,8.36-1-2.31h.33c2.59,0,2.59-.1,2.58-1.11v-.85c-1.15.21-2.27.34-3.13.43l-.19,0-.51-2.23.25,0c1.23-.09,2.53-.27,3.56-.42V25.49l-3.66,0,0-2.18,3.66,0V21.93c-.81.09-1.68.15-2.64.18h-.17L132.67,20H133a21.68,21.68,0,0,0,6.66-.92l-7,.05V17l6.39,0,0-1.43-5.25,0v-2l5.25,0V12.13l-6.29,0V10.1l3.09,0a10.47,10.47,0,0,0-.88-1.21l-.23-.28,2.63-.51.08.11a12.81,12.81,0,0,1,1.2,1.87l3.2,0a13.06,13.06,0,0,0,1-1.89l.06-.16,2.65.46-.12.25a13.12,13.12,0,0,1-.72,1.32l3.27,0,0,2.08-6.31,0v1.38l5.38,0,0,2-5.38,0V16.9l6.39,0V19l-2.15,0,0,.05a26.12,26.12,0,0,1,2.05,2.84l.11.17-1.57,1.15H148l0,2.17-1.58,0,1.37,1.2-.12.16A18.48,18.48,0,0,1,145,29.72c.35.82.75,1.25.92,1.25s.44,0,1.09-2.84l.11-.46,1.49,2.08,0,.1c-.65,2.36-1.66,3.67-2.83,3.68h0c-1,0-1.89-.82-2.63-2.31a16.18,16.18,0,0,1-2.84,1.72l-.18.08-1.29-2.08.27-.09a12.19,12.19,0,0,0,3.27-1.63,22.46,22.46,0,0,1-.77-3.78l-3,0v1.19c.81-.18,1.6-.38,2.35-.6l.27-.08,0,2.14-.15.05c-.73.23-1.58.47-2.47.68v1.2c0,2.79-.38,3.51-4.16,3.57ZM134,31.74l.64,1.44c3.49-.06,3.62-.67,3.6-3.12V28.51l.17,0c.87-.2,1.71-.43,2.45-.66V26.55c-.76.22-1.55.41-2.36.59l-.26.05,0-2.15,3.8,0,0,.19a23.7,23.7,0,0,0,.82,4l.05.15-.13.09a12.82,12.82,0,0,1-3.25,1.7l.8,1.29a15.4,15.4,0,0,0,2.79-1.75l.22-.16.11.24c.68,1.46,1.54,2.3,2.36,2.3h0c.93,0,1.8-1.2,2.39-3.27l-.82-1.14c-.6,2.37-1,2.71-1.4,2.71h0c-.52,0-1.05-.85-1.38-1.66l-.05-.14.11-.1a17.74,17.74,0,0,0,2.56-2.83l-.92-.8a12.17,12.17,0,0,1-1.87,2.3l-.27.27-.09-.37c-.17-.8-.34-1.78-.47-2.83l0-.24,4,0V23.65l-4.12,0,0-.2c-.09-1.31-.14-2.57-.16-3.77l-1.63.05c0,1.16.11,2.37.23,3.7l0,.23-3.68,0,0-2.52.18,0a13,13,0,0,0,2.19-.58l-.65-1.15a21.53,21.53,0,0,1-6.6,1l.4,1.27c1,0,1.86-.11,2.69-.2l.23,0,0,2.28-3.66,0v1.32l3.66,0,0,2.45-.18,0c-1,.15-2.29.33-3.53.43l.31,1.37c.89-.09,2-.23,3.16-.45l.25-.05V30.2C136.66,31.56,136.32,31.71,134,31.74ZM144,25.43c.1.78.22,1.51.35,2.16A12.21,12.21,0,0,0,146,25.43v0Zm-5.45-3.87,0,1.73,2.78,0c-.11-1.33-.19-2.55-.22-3.71v-.21l2.5-.08v.22c0,1.19.06,2.45.15,3.76l2.41,0-.05-.08a15.82,15.82,0,0,0-2-2.86L144,20.1,145.6,19l-5.46,0,1,1.75-.22.09A12.48,12.48,0,0,1,138.57,21.56Zm6.09-1.38a16.65,16.65,0,0,1,1.76,2.55l1-.76a24.66,24.66,0,0,0-1.79-2.48ZM133,17.4v1.29l14.55-.11v-1.3l-6.39,0,0-2.28,5.39-.05V13.87l-5.39,0V11.68l6.31,0V10.41l-3.62,0,.2-.33c.23-.37.54-.88.78-1.35L143,8.46a12.7,12.7,0,0,1-1,1.9l-.06.1-3.7,0-.06-.12a11,11,0,0,0-1.13-1.82l-1.66.33a11.49,11.49,0,0,1,.89,1.3l.19.32-3.42,0v1.21l6.28-.05,0,2.24-5.25,0V15.1l5.25,0,0,2.29Zm-7.14,13.13,0-3.77,4.32,0,0,3.77Zm.4-3.35,0,2.91,3.47,0,0-2.91ZM124,23.35,124,21l7.93-.06,0,2.39Zm.41-2v1.53l7.08-.05V21.33ZM124,19.51l0-2.37,7.93-.06,0,2.37Zm.41-1.94v1.51l7.08-.06V17.51Zm-1.53-2,0-2.52,10-.08,0,2.52Zm.41-2.1v1.67l9.15-.07V13.45Zm.64-1.91,0-2.5,7.94-.06,0,2.49Zm.42-2.07v1.63l7.08-.05,0-1.64Z" transform="translate(-0.52 -0.11)"/><path class="cls-2" d="M150,32.32l0-2.14,11.06-.09,0-3.05-8.73.07V25l8.72-.07,0-2.71c-3.24.16-6.42.21-9.36.24l-.47-2.18c1.25.05,2.63.06,4.09.05a18.35,18.35,0,0,0,2.46-3.65l-4.56,0,0-2.05L171,14.52v2l-10.76.09A18,18,0,0,1,158,20.27c3.36-.08,6.86-.24,9.78-.58-.7-.71-1.29-1.31-1.61-1.58l1.69-1.18c.7.56,4.6,4.42,5.32,5.19l-1.69,1.55-2-2.19c-2.07.29-4.13.46-6.23.61l0,2.81,8.7-.07L172,27l-8.7.07,0,3.05L174.5,30l0,2.15ZM171.54,15l0-3-18.85.15,0,3-2.2,0,0-5,10.39-.08V8.13l2.41,0,0,1.94L173.73,10l0,5Z" transform="translate(-0.52 -0.11)"/><path class="cls-2" d="M149.83,32.54l0-2.58,11.05-.08,0-2.62-8.72.06,0-2.55,8.72-.07V22.44c-3.38.16-6.66.2-9.15.22h-.17l-.57-2.61h.28c1.21,0,2.55.06,4,.05a19.58,19.58,0,0,0,2.21-3.22l-4.42,0,0-2.47,18.3-.14,0,2.47-3.22,0c.8.67,4.56,4.4,5.3,5.17l.15.16-2,1.84-2.07-2.26c-2.08.28-4.15.45-5.93.58l0,2.39,8.69-.06,0,2.55-8.69.06,0,2.62,11.16-.08,0,2.57h-.21Zm.41-2.15v1.72l24.05-.19V30.2l-11.17.09,0-3.48,8.7-.07V25.05l-8.7.07,0-3.23.2,0c1.85-.13,4-.3,6.21-.6h.11l1.94,2.11,1.36-1.26c-.95-1-4.14-4.15-5-4.91l-1.33.93c.33.31.8.79,1.32,1.32l.4.41-.44.05c-2.53.29-5.73.48-9.8.58h-.47l.3-.36a17.62,17.62,0,0,0,2.25-3.58l.06-.12,10.68-.09V14.74l-17.44.14v1.61l4.69,0-.15.31a18.76,18.76,0,0,1-2.49,3.7l-.07.08h-.09c-1.37,0-2.65,0-3.82,0l.37,1.73c2.52,0,5.81-.07,9.18-.23h.22l0,3.14-8.73.07v1.69l8.73-.07,0,3.48Zm10.18-13.53a18.29,18.29,0,0,1-2,3.19c3.61-.1,6.52-.27,8.87-.52-.55-.56-1-1-1.28-1.25l-.22-.18,1.85-1.29ZM150.27,15.4l0-5.46,10.4-.09,0-1.93,2.84,0,0,1.93,10.47-.08.05,5.47-2.66,0,0-3-18.43.14,0,3Zm.39-5,0,4.61h1.77l0-3,19.28-.15,0,3,1.79,0,0-4.61L163,10.27V8.33l-2,0,0,1.93Z" transform="translate(-0.52 -0.11)"/></svg>